<?xml version="1.0" encoding="UTF-8"?><svg xmlns="http://www.w3.org/2000/svg" version="1.2" baseProfile="tiny" width="24" height="24" viewBox="0 0 24 24"><path d="M4.75 15.561a2 2 0 0 0 2.811-.313l2.789-3.486L12.8 13.6a2 2 0 0 0 2.762-.352l4-5a2 2 0 0 0-3.124-2.499l-2.789 3.486L11.2 7.4a2 2 0 0 0-2.762.35l-4 5a2.001 2.001 0 0 0 .312 2.811zM5 21h14a1 1 0 1 0 0-2H5a1 1 0 1 0 0 2z"/><metadata><rdf:RDF xmlns:rdf="http://www.w3.org/1999/02/22-rdf-syntax-ns#" xmlns:rdfs="http://www.w3.org/2000/01/rdf-schema#" xmlns:dc="http://purl.org/dc/elements/1.1/"><rdf:Description about="https://iconscout.com/legal#licenses" dc:title="chart,line" dc:description="chart,line" dc:publisher="Iconscout" dc:date="2017-09-24" dc:format="image/svg+xml" dc:language="en"><dc:creator><rdf:Bag><rdf:li>Typicons</rdf:li></rdf:Bag></dc:creator></rdf:Description></rdf:RDF></metadata></svg>